<svg width="42" height="56" viewBox="0 0 42 56" fill="none" xmlns="http://www.w3.org/2000/svg">
<path d="M0 19.0403C0.141739 18.1898 0.236214 17.3394 0.425199 16.4889C2.40954 8.36259 7.41765 3.11825 15.4023 0.70869C16.111 0.472458 16.7252 0.803182 16.9141 1.41738C17.1031 2.07883 16.7724 2.6458 15.9692 2.88203C11.1501 4.20493 7.41764 6.99245 4.81909 11.2919C-1.6064 21.9223 4.1104 35.7654 16.1582 38.8364C26.4579 41.4822 36.9465 34.8205 38.9309 24.3791C40.7735 14.7408 34.9622 5.48058 25.513 2.88203C24.7098 2.6458 24.379 2.12609 24.5208 1.46465C24.6625 0.850446 25.324 0.519722 26.0327 0.755953C34.0173 3.16551 39.1671 8.40984 40.9625 16.5834C42.5688 24.0483 40.3955 30.5211 34.9622 35.9071C34.6787 36.1906 34.6315 36.3324 34.8677 36.6631C36.8521 40.1593 38.8364 43.7028 40.868 47.199C40.9625 47.388 41.057 47.5297 41.1515 47.7187C41.4349 48.1439 41.4349 48.6164 41.1515 49.0416C40.8207 49.4668 40.3955 49.5613 39.8758 49.4196C38.9781 49.2306 38.0804 49.0416 37.1828 48.8526C35.6709 48.5219 34.159 48.2384 32.5999 47.9077C32.0802 49.4196 31.5132 50.8842 30.9935 52.3961C30.71 53.2465 30.3793 54.097 30.0958 54.9474C29.9068 55.4671 29.6706 55.9395 29.0564 55.9868C28.395 56.0813 28.0643 55.6561 27.7808 55.1364C25.5602 51.1677 23.2924 47.2462 21.0246 43.2776C20.9301 43.1358 20.8356 42.9468 20.6938 42.7106C20.5521 42.9468 20.4576 43.0886 20.3631 43.2776C18.1425 47.1518 15.922 51.0732 13.7486 54.9474C13.7014 55.0419 13.6069 55.1836 13.5596 55.2781C13.3234 55.7505 12.9455 55.9868 12.4258 55.9395C11.906 55.8923 11.6226 55.5616 11.4336 55.0891C10.6776 52.963 9.92169 50.7897 9.16575 48.6636C8.88227 47.8132 8.88229 47.8132 8.03186 48.0022C5.90578 48.4746 3.73243 48.8998 1.60635 49.3723C1.08665 49.4668 0.661424 49.4196 0.330701 48.9471C-2.30638e-05 48.5219 0.0944694 48.0494 0.330701 47.6242C2.36229 44.0335 4.39388 40.3955 6.47271 36.8048C6.75619 36.3324 6.75619 36.0489 6.33098 35.6237C2.69302 32.1274 0.661442 27.8281 0.141733 22.82C0.141733 22.6782 0.0944809 22.5365 0.0472347 22.3947C-1.15354e-05 21.3081 0 20.1742 0 19.0403ZM8.55156 37.608C6.85069 40.6318 5.14982 43.6555 3.40171 46.6793C3.59069 46.6793 3.68521 46.6793 3.7797 46.6793C5.57506 46.3013 7.32316 45.9233 9.11852 45.5454C10.0162 45.3564 10.3941 45.5926 10.7249 46.4431C11.3391 48.1912 11.9533 49.892 12.5675 51.6402C12.6147 51.8291 12.7092 51.9709 12.8037 52.2071C14.8826 48.5691 16.8669 45.0729 18.8985 41.4822C15.0715 41.1042 11.6226 39.7813 8.55156 37.608ZM38.1277 46.7265C36.3796 43.6083 34.6787 40.6318 32.9306 37.608C29.8123 39.8286 26.4106 41.1042 22.5837 41.4822C24.6153 45.0729 26.6469 48.6164 28.6784 52.2071C28.7729 52.0181 28.8202 51.8764 28.8202 51.7819C29.4816 49.9865 30.0958 48.1439 30.7573 46.3486C31.0408 45.5926 31.5132 45.3564 32.2219 45.4981C32.4581 45.5454 32.6471 45.5926 32.8361 45.6399C34.5842 46.0178 36.2851 46.3486 38.1277 46.7265Z" fill="black"/>
<path d="M21.0719 0C21.3081 0.330724 21.6861 0.566955 21.7806 0.944925C21.9696 1.46463 21.5444 1.98436 21.0246 2.17334C20.5049 2.31508 19.9852 2.07885 19.749 1.60638C19.5128 1.13392 19.6073 0.566966 20.0797 0.188996C20.1742 0.094504 20.2687 0.0472462 20.4104 0C20.6466 0 20.8829 0 21.0719 0Z" fill="white"/>
<path d="M20.7411 37.1828C11.6698 37.1828 4.39392 29.8124 4.39392 20.7411C4.39392 11.6698 11.7643 4.39394 20.8356 4.39394C29.8596 4.39394 37.1356 11.7643 37.1356 20.8356C37.1356 29.8596 29.7651 37.1828 20.7411 37.1828ZM34.9622 20.7411C34.9622 12.9455 28.5367 6.52 20.7411 6.56725C12.9455 6.6145 6.56724 12.9927 6.56724 20.7411C6.56724 28.5367 12.9927 34.9622 20.7884 34.9622C28.5368 34.9622 34.9622 28.5367 34.9622 20.7411Z" fill="black"/>
<path d="M13.8904 28.9147C14.0794 27.7808 14.2684 26.5524 14.4574 25.324C14.5519 24.6625 14.6936 23.9539 14.7881 23.2924C14.7881 23.1034 14.6936 22.8672 14.5519 22.7254C13.3235 21.497 12.0951 20.2686 10.8194 19.0402C10.4414 18.6623 10.158 18.3315 10.2997 17.7646C10.4887 17.1504 10.9139 16.9614 11.4809 16.9142C13.0872 16.6779 14.6936 16.3945 16.3472 16.2055C16.8669 16.1582 17.1504 15.9692 17.3866 15.4495C18.0953 13.9376 18.8513 12.473 19.6072 10.9611C19.8435 10.4887 20.1269 10.1579 20.7411 10.1579C21.3081 10.1579 21.5915 10.4887 21.8278 10.9611C22.5837 12.473 23.3869 13.9849 24.0956 15.4968C24.3318 15.9692 24.6625 16.111 25.135 16.2055C26.7886 16.4417 28.4895 16.7252 30.1431 16.9614C30.6628 17.0559 31.0408 17.2921 31.1826 17.7646C31.3243 18.2843 31.088 18.6623 30.7573 18.993C29.5289 20.2214 28.2533 21.4498 27.0249 22.6782C26.7886 22.9144 26.6469 23.1507 26.7414 23.5286C27.0721 25.2767 27.3084 26.9776 27.6391 28.7257C27.7336 29.1982 27.6391 29.6234 27.2139 29.9541C26.7886 30.2848 26.3634 30.2376 25.9382 30.0013C24.3318 29.1509 22.7727 28.3478 21.1663 27.5446C20.9774 27.4501 20.6466 27.4501 20.4104 27.5446C18.804 28.3478 17.1977 29.1982 15.6385 30.0013C14.6936 30.4266 13.8432 29.9069 13.8904 28.9147ZM13.8904 18.804C14.8353 19.7962 15.7803 20.7411 16.678 21.7333C17.0087 22.064 17.1976 22.4892 17.1032 22.9617C17.0087 23.4814 16.9142 24.0011 16.8197 24.5208C16.6779 25.324 16.5835 26.1744 16.4417 27.0721C17.6229 26.4579 18.7095 25.9382 19.749 25.324C20.4577 24.8988 21.0246 24.946 21.7333 25.324C22.7727 25.9382 23.8594 26.4579 25.0405 27.0721C24.8043 25.6547 24.6153 24.3791 24.3791 23.1034C24.2846 22.5365 24.3791 22.1112 24.8043 21.7333C25.6547 20.8828 26.5052 20.0324 27.3556 19.2292C27.4501 19.1347 27.5446 19.0402 27.6391 18.8512C26.3634 18.6623 25.1823 18.4733 23.9539 18.3316C23.1979 18.2371 22.6782 17.9536 22.3947 17.2449C22.2058 16.8196 21.9695 16.3945 21.7805 15.9692C21.4498 15.2605 21.0719 14.5991 20.6939 13.7959C20.0797 15.0243 19.5127 16.111 18.993 17.1976C18.6623 17.9063 18.1898 18.2371 17.3866 18.3316C16.2527 18.426 15.0716 18.615 13.8904 18.804Z" fill="white"/>
</svg>
