<svg width="153" height="152" viewBox="0 0 153 152" fill="none" xmlns="http://www.w3.org/2000/svg">
<path d="M0 75.2319C0.822848 73.9388 1.99835 73.4686 3.52649 73.4686C5.28974 73.5862 7.05299 73.4686 8.81623 73.4686C9.75663 73.4686 10.1093 73.3511 10.2268 72.1756C10.697 64.5349 12.2252 57.1292 15.399 50.1938C24.6855 29.6226 40.3196 16.6921 62.3014 11.6375C65.5928 10.9322 68.8842 10.5795 72.2931 10.3444C73.2335 10.2269 73.3511 9.99174 73.3511 9.05135C73.3511 7.17055 73.3511 5.40729 73.3511 3.52649C73.2335 1.99835 73.8213 0.822848 75.1143 0C75.7021 0 76.2898 0 76.8776 0C78.1706 0.822848 78.6408 1.99835 78.6408 3.52649C78.5233 5.28974 78.6408 7.05299 78.6408 8.81623C78.6408 9.75663 78.7584 10.1093 79.9339 10.2268C88.0448 10.697 95.9206 12.4603 103.326 15.9868C124.015 25.861 136.593 42.2004 141.06 64.6524C141.53 67.2385 141.765 69.8246 142 72.4107C142.118 73.2336 142.353 73.3511 143.058 73.3511C145.056 73.3511 147.172 73.3511 149.171 73.3511C151.051 73.3511 152.227 74.409 152.227 76.0547C152.227 77.5829 151.051 78.5233 149.171 78.6408C147.29 78.6408 145.292 78.6408 143.411 78.6408C142.47 78.6408 142.118 78.7584 142 79.8163C141.06 93.5696 136.475 105.912 128.012 116.845C121.194 125.543 112.613 132.008 102.503 136.475C100.74 137.298 99.212 136.828 98.6243 135.3C98.0365 133.772 98.6243 132.596 100.505 131.773C116.609 124.485 127.894 112.495 133.772 95.8031C145.644 62.0663 125.073 24.9206 90.1607 16.9272C59.1276 9.75666 28.212 27.2715 18.4553 57.5994C10.697 81.5795 19.0431 108.498 38.909 123.897C48.313 131.186 58.8925 135.417 70.765 136.593C72.5282 136.828 74.409 136.71 76.2898 136.828C78.0531 136.946 78.9935 137.886 78.9935 139.649C78.9935 142.823 78.9935 145.997 78.9935 149.171C78.9935 150.934 77.9355 152.109 76.2898 151.992C74.7617 151.992 73.8213 150.816 73.7037 149.171C73.7037 147.172 73.5862 145.174 73.7037 143.293C73.7037 142.353 73.4686 142 72.4107 141.883C64.7699 141.412 57.2467 139.767 50.3113 136.593C29.8576 127.306 16.9272 111.672 11.8725 89.6905C11.1672 86.3991 10.697 83.1077 10.5795 79.6988C10.4619 78.7584 10.2268 78.6408 9.28643 78.6408C7.40563 78.6408 5.6424 78.6408 3.76161 78.6408C2.23346 78.7584 1.05796 78.1706 0.235114 76.8776C1.43458e-05 76.4074 0 75.8196 0 75.2319Z" fill="white"/>
<path d="M75.8194 117.55C95.6854 117.315 112.495 103.796 116.374 84.4008C120.136 65.7104 111.555 47.6077 94.3923 39.1441C80.5214 32.3262 66.7681 33.0315 53.6025 41.0249C51.8393 42.0828 50.4287 41.9652 49.4883 40.5546C48.6655 39.2616 49.1357 37.851 50.7814 36.6755C59.8327 30.9156 69.7068 28.5646 80.4039 29.6225C99.0943 31.5033 115.081 44.5514 120.488 62.5365C128.247 88.1623 112.26 115.551 86.0463 121.429C60.0678 127.189 35.3823 110.849 30.0926 84.6358C27.8591 73.7037 29.7399 63.2418 35.1472 53.4851C35.9701 52.0745 37.028 51.4868 38.2035 51.8395C39.9668 52.3097 40.5545 54.0729 39.6141 55.8361C37.8509 59.01 36.5578 62.3014 35.6174 65.8278C29.7399 87.9272 44.3161 111.672 66.6506 116.492C69.5893 117.197 72.6456 117.432 75.8194 117.55Z" fill="white"/>
<path d="M94.6277 73.4684C93.2171 64.6522 87.2221 58.6572 78.2883 57.1291C78.2883 58.3046 78.2883 59.4801 78.2883 60.6556C78.2883 62.5364 77.2303 63.5943 75.7022 63.5943C74.174 63.5943 73.1161 62.5364 73.1161 60.6556C73.1161 59.4801 73.1161 58.4221 72.9985 57.2466C72.9985 57.2466 72.9985 57.1291 72.881 57.1291C64.1823 58.5397 58.1873 64.5347 56.6591 73.3509C57.8346 73.3509 59.0101 73.3509 60.1856 73.3509C62.0664 73.3509 63.1244 74.4089 63.1244 75.937C63.1244 77.4652 62.0664 78.5231 60.1856 78.5231C59.0101 78.5231 57.9522 78.5231 56.7767 78.6407C56.7767 78.6407 56.6591 78.6406 56.6591 78.7582C58.0697 87.4569 64.0648 93.452 72.881 94.9801C72.881 93.8046 72.881 92.6291 72.881 91.4536C72.881 89.5728 73.9389 88.5149 75.4671 88.5149C76.9952 88.5149 78.0532 89.5728 78.0532 91.4536C78.0532 92.0414 78.0532 92.6291 78.0532 93.2169C78.0532 93.8046 78.0532 94.2748 78.0532 94.9801C82.6376 94.2748 86.5168 92.2764 89.5731 88.985C90.1608 88.3973 90.631 87.5745 91.4538 87.4569C92.6293 87.2218 93.6873 87.4569 94.2751 88.5149C94.9804 89.6904 94.8628 90.7483 93.9224 91.8063C90.3959 96.0381 85.929 98.7417 80.5217 99.9171C77.9356 100.505 77.9356 100.387 77.9356 103.091C77.9356 103.679 77.9356 104.267 77.9356 104.854C77.7005 106.265 76.6426 107.323 75.3495 107.323C74.0565 107.323 72.881 106.265 72.7634 104.854C72.6459 103.679 72.6459 102.621 72.7634 101.445C72.7634 100.623 72.5283 100.387 71.7055 100.27C61.3611 98.8593 52.6624 90.1605 51.3694 79.8162C51.2518 79.1109 51.0167 78.7582 50.3114 78.8758C49.2535 78.8758 48.078 78.8758 47.02 78.8758C45.3743 78.7582 44.3164 77.7003 44.3164 76.2897C44.3164 74.8791 45.4919 73.7036 47.1376 73.586C48.4306 73.4685 50.1939 74.0562 51.0167 73.3509C51.8396 72.7632 51.722 70.8824 51.9571 69.7069C54.4257 60.6556 62.5366 53.485 71.823 52.192C72.7634 52.0744 72.881 51.7218 72.881 51.0165C72.881 49.9585 72.881 48.9006 72.881 47.9602C72.9985 46.3145 74.0565 45.2565 75.4671 45.139C76.8777 45.139 78.0532 46.3145 78.1707 47.9602C78.2883 49.2532 77.7005 51.0165 78.4058 51.8393C78.9936 52.6622 80.8744 52.5446 82.0499 52.7797C91.1012 55.2483 98.2718 63.3592 99.5648 72.5281C99.6824 73.4685 100.035 73.586 100.74 73.586C101.798 73.586 102.856 73.586 103.797 73.586C105.442 73.7036 106.5 74.7616 106.618 76.1721C106.618 77.5827 105.442 78.8758 103.797 78.8758C99.4472 78.8758 94.9804 78.8758 90.631 78.8758C88.9853 78.8758 87.9273 77.8178 87.9273 76.2897C87.9273 74.7615 88.9853 73.7036 90.7486 73.7036C92.1592 73.4685 93.4522 73.4684 94.6277 73.4684Z" fill="#D6FE00"/>
<path d="M77.8544 95.3113C86.6706 93.9007 92.6656 87.9057 94.1937 78.9719C93.0182 78.9719 91.8427 78.9719 90.6673 78.9719C88.7865 78.9719 87.7285 77.9139 87.7285 76.3858C87.7285 74.8576 88.7865 73.7997 90.6673 73.7997C91.8427 73.7997 92.9007 73.7997 94.0762 73.6821C94.0762 73.6821 94.1937 73.6821 94.1937 73.5646C92.7831 64.8659 86.7881 58.8709 77.9719 57.3427C77.9719 58.5182 77.9719 59.6937 77.9719 60.8692C77.9719 62.75 76.9139 63.808 75.3858 63.808C73.8576 63.808 72.7997 62.75 72.7997 60.8692C72.7997 59.6937 72.7997 58.6357 72.6821 57.4602C72.6821 57.4602 72.6822 57.3427 72.5646 57.3427C63.8659 58.7533 57.8708 64.7483 56.3427 73.5646C57.5182 73.5646 58.6937 73.5646 59.8692 73.5646C61.75 73.5646 62.8079 74.6225 62.8079 76.1507C62.8079 77.6788 61.75 78.7368 59.8692 78.7368C59.2814 78.7368 58.6937 78.7368 58.1059 78.7368C57.5182 78.7368 57.048 78.7368 56.3427 78.7368C57.048 83.3212 59.0464 87.2004 62.3378 90.2567C62.9255 90.8444 63.7484 91.3146 63.8659 92.1374C64.101 93.3129 63.8659 94.3709 62.8079 94.9587C61.6324 95.664 60.5745 95.5464 59.5166 94.606C55.2848 91.0795 52.5812 86.6126 51.4057 81.2053C50.8179 78.6192 50.9355 78.6192 48.2318 78.6192C47.6441 78.6192 47.0563 78.6192 46.4686 78.6192C45.058 78.3841 44 77.3262 44 76.0331C44 74.7401 45.058 73.5646 46.4686 73.447C47.6441 73.3295 48.702 73.3295 49.8775 73.447C50.7003 73.447 50.9354 73.2119 51.053 72.3891C52.4636 62.0447 61.1623 53.346 71.5066 52.053C72.2119 51.9354 72.5646 51.7003 72.447 50.995C72.447 49.9371 72.447 48.7616 72.447 47.7036C72.5646 46.0579 73.6225 45 75.0331 45C76.4437 45 77.6192 46.1755 77.7368 47.8212C77.8543 49.1142 77.2666 50.8775 77.9719 51.7003C78.5596 52.5232 80.4404 52.4056 81.6159 52.6407C90.6672 55.1093 97.8378 63.2202 99.1308 72.5066C99.2484 73.447 99.601 73.5646 100.306 73.5646C101.364 73.5646 102.422 73.5646 103.363 73.5646C105.008 73.6821 106.066 74.7401 106.184 76.1507C106.184 77.5613 105.008 78.7368 103.363 78.8543C102.07 78.9719 100.306 78.3841 99.4835 79.0894C98.6606 79.6772 98.7782 81.558 98.5431 82.7334C96.0746 91.7848 87.9636 98.9553 78.7947 100.248C77.8544 100.366 77.7368 100.719 77.7368 101.424C77.7368 102.482 77.7368 103.54 77.7368 104.48C77.6192 106.126 76.5613 107.184 75.1507 107.301C73.7401 107.301 72.447 106.126 72.447 104.48C72.447 100.131 72.447 95.6639 72.447 91.3146C72.447 89.6689 73.505 88.6109 75.0331 88.6109C76.5613 88.6109 77.6193 89.6689 77.6193 91.4322C77.8544 92.8428 77.8544 94.1358 77.8544 95.3113Z" fill="#D6FE00"/>
<path d="M75.7023 85.8114C70.1775 85.8114 66.0632 81.5796 66.0632 76.1723C66.0632 70.5299 70.295 66.4156 75.9374 66.4156C81.3447 66.4156 85.4589 70.765 85.4589 76.2899C85.4589 81.6972 81.2271 85.8114 75.7023 85.8114Z" fill="#D6FE00"/>
</svg>
