<svg width="47" height="64" viewBox="0 0 47 64" fill="none" xmlns="http://www.w3.org/2000/svg">
<path d="M46.8075 2.6208C46.3358 1.25799 45.4972 0.419335 44.344 0.104839C44.0819 0.0524225 43.7674 0 43.4529 0C28.5143 0 16.4586 0 5.39885 0C2.35872 0 0 2.35872 0 5.39885C0 21.0713 0 37.4775 0 54.1458C0 57.0811 2.41116 59.5971 5.29404 59.5971C6.34236 59.5971 6.60443 58.9681 6.65685 58.4963C6.70926 57.7101 6.28992 57.2908 5.39885 57.2383C3.77395 57.1335 2.67324 56.0852 2.41116 54.5127C2.20149 53.2023 3.09254 51.8395 4.35053 51.3677C4.76985 51.2105 5.2416 51.1581 5.66093 51.1581C16.6683 51.1581 27.8329 51.1581 38.6306 51.1581H44.4488C44.4488 51.6298 44.4488 52.1016 44.4488 52.5733C44.4488 53.8837 44.4488 55.1417 44.4488 56.3473C44.4488 57.0287 43.8723 57.1859 43.5578 57.2383C43.4005 57.2383 43.2433 57.2383 43.086 57.2383C43.0336 57.2383 42.9811 57.2383 42.9287 57.2383H36.534C31.869 57.2383 27.204 57.2383 22.5389 57.2383C22.0672 57.2383 21.6478 57.3956 21.4381 57.6577C21.2285 57.9198 21.1237 58.2342 21.2285 58.6536C21.3334 59.2301 21.6478 59.5447 22.2244 59.5971C22.3816 59.5971 22.5389 59.5971 22.6961 59.5971C22.801 59.5971 22.8534 59.5971 22.9582 59.5971C24.7928 59.5971 26.6274 59.5971 28.4095 59.5971C33.127 59.5971 38.0541 59.5971 42.8763 59.6495H42.9287C45.0254 59.6495 46.2834 58.8108 46.9124 57.0287L46.8075 2.6208ZM44.3964 48.7469H34.9091C25.7363 48.7469 16.1966 48.7469 6.86652 48.7469H6.60444C5.18921 48.7469 3.66914 48.7469 2.30632 49.6904V5.87061C2.30632 3.5643 3.51189 2.35872 5.8182 2.35872C12.0033 2.35872 18.1884 2.35872 24.3735 2.35872C30.5586 2.35872 36.7436 2.35872 42.9287 2.35872C44.1343 2.35872 44.3964 2.6208 44.3964 3.82637V48.7469Z" fill="black"/>
<path d="M19.2892 57.7101C19.2892 57.1335 19.2892 56.5569 19.2892 55.9803V55.4038H40.9371C40.9895 55.4038 41.0419 55.4038 41.0943 55.4038C41.2515 55.4038 41.4088 55.4038 41.5661 55.4038C42.195 55.3514 42.6144 54.8272 42.6144 54.1982C42.6144 53.5692 42.195 53.0975 41.5661 53.045C41.4088 53.045 41.1991 53.045 41.0419 53.045H40.8847C29.1959 53.045 17.4547 53.045 5.76589 53.045C5.71348 53.045 5.66107 53.045 5.60865 53.045C5.50382 53.045 5.39898 53.045 5.24173 53.045C4.61274 53.0975 4.24583 53.4644 4.19341 54.0934C4.141 54.4603 4.24583 54.7748 4.45549 55.0368C4.66516 55.2989 5.0845 55.4562 5.55625 55.4562C8.17705 55.4562 10.7979 55.4562 13.4187 55.4562H16.8257V59.8591C16.6685 59.7019 16.5112 59.4922 16.3015 59.335C15.8298 58.8108 15.358 58.339 14.8863 57.8673C14.467 57.448 14.1525 57.2907 13.838 57.2907C13.5235 57.2907 13.1566 57.5004 12.7372 57.9197C12.2655 58.3915 11.7938 58.9156 11.322 59.3874C11.1648 59.597 10.9551 59.7543 10.7979 59.9639C10.7979 59.8591 10.7979 59.7019 10.7979 59.5971C10.7979 59.2826 10.7979 58.968 10.7979 58.6535C10.7979 57.8149 10.3785 57.3431 9.64469 57.3431C9.64469 57.3431 9.64468 57.3431 9.59226 57.3431C9.22535 57.3431 8.96328 57.448 8.75361 57.6577C8.54395 57.8673 8.3867 58.2342 8.3867 58.706C8.3867 59.1253 8.3867 59.597 8.3867 60.0164C8.3867 60.8026 8.3867 61.6413 8.3867 62.4799C8.3867 63.1613 8.59637 63.6331 9.12053 64H9.17294H10.064L13.838 60.3309L17.6119 64H18.503H18.5554C19.2368 63.5807 19.2892 62.9517 19.2892 62.4275C19.2368 60.7502 19.2892 59.1777 19.2892 57.7101Z" fill="black"/>
<path d="M34.5946 22.4865C34.3326 21.9099 34.0705 21.3333 33.8084 20.7043C33.756 20.5471 33.7035 20.3898 33.6511 20.285C33.8608 20.1802 34.0704 20.0753 34.2801 19.9705C34.8043 19.656 35.3284 19.3939 35.8002 19.0794C36.0623 18.9222 36.2195 18.6601 36.2195 18.3456C36.2719 18.0311 36.1671 17.6642 35.905 17.4021C35.4857 16.878 34.8043 16.8255 34.2801 17.1925C32.9697 18.1359 31.5545 18.2932 29.8247 17.6118C29.4054 17.4545 29.0385 17.2973 28.6192 17.1401C27.3088 16.6159 25.9984 16.0393 24.5307 15.9345C24.5307 15.7248 24.5307 15.4627 24.5307 15.2531C24.5307 14.8337 24.5307 14.4144 24.5307 14.0475C24.5307 13.2613 24.059 12.7371 23.3252 12.7371C22.5914 12.7371 22.172 13.2613 22.172 14.0475C22.172 14.5192 22.172 14.991 22.172 15.4103C22.172 15.5675 22.172 15.6724 22.172 15.8297C21.8051 15.9345 21.4906 16.0393 21.1761 16.1441C20.3374 16.4062 19.5512 16.6159 18.765 16.878C18.398 16.9828 18.0311 17.14 17.7166 17.2973C17.3497 17.4545 16.9828 17.6118 16.6159 17.7166C15.0434 18.2408 13.733 18.0835 12.5799 17.2973C11.8985 16.8256 11.2695 16.878 10.8501 17.4545C10.6405 17.769 10.5356 18.0835 10.5881 18.398C10.6405 18.7125 10.8502 19.027 11.2171 19.2367C11.6364 19.5512 12.1081 19.7609 12.6323 20.0229C12.7896 20.1278 12.9992 20.2326 13.2089 20.285C13.1565 20.3898 13.104 20.4947 13.0516 20.6519C12.7895 21.2809 12.5274 21.9099 12.2129 22.4865C11.4791 24.1638 10.7453 25.8935 9.95906 27.5708C9.59215 28.3047 9.53974 29.0909 9.69698 29.8771C10.2211 32.4455 12.213 34.1753 14.7813 34.1753C17.6642 34.2277 19.7085 32.7076 20.285 29.982C20.4947 29.0909 20.3899 28.3047 20.023 27.5184C19.2367 25.8411 18.5029 24.1638 17.7691 22.4865C17.507 21.9099 17.2449 21.2809 16.9828 20.7043C16.9304 20.5471 16.878 20.3898 16.8256 20.285V20.2326C17.0877 20.1277 17.3497 20.0229 17.6118 19.9181C18.2408 19.656 18.8698 19.3939 19.4988 19.1319C21.8575 18.0835 24.2686 17.9787 26.6798 18.8698C27.5184 19.1843 28.3047 19.4988 29.091 19.8657C29.4055 20.0229 29.7724 20.1278 30.1393 20.285C29.8772 20.8616 29.6151 21.4906 29.353 22.0671C28.5144 23.9541 27.6233 25.946 26.7846 27.8853C26.6274 28.3047 26.5226 28.7764 26.5226 29.1957C26.6798 31.9214 28.724 33.9656 31.2924 34.1228C31.4497 34.1228 31.6593 34.1228 31.8166 34.1228C34.6995 34.1228 36.6389 32.6028 37.2155 29.8247C37.3727 28.9861 37.3203 28.2523 36.9534 27.5184C36.1147 25.8935 35.3285 24.1638 34.5946 22.4865ZM34.5422 29.982C34.2277 31.0827 33.2318 31.7641 31.869 31.8166H31.8166C30.4538 31.8166 29.4055 31.1351 29.091 29.982H34.5422ZM29.5103 27.5184L29.8247 26.837C30.1392 26.1556 30.4013 25.5266 30.7158 24.8452C30.9779 24.2162 31.2924 23.5872 31.6069 22.9058L31.9214 22.2244L34.2801 27.5184H29.5103ZM12.5799 27.5184L14.9386 22.172L17.2973 27.5184H12.5799ZM14.991 31.7641C13.5758 31.8165 12.5799 31.1351 12.1605 29.9296H17.6642C17.2973 31.0827 16.3538 31.7641 14.991 31.7641Z" fill="url(#paint0_linear_2325_20881)"/>
<path d="M28.4619 36.0098C27.5184 36.0098 26.6273 36.0098 25.6839 36.0098H24.5831V21.7527C24.5831 21.7003 24.5831 21.6478 24.5831 21.5954C24.5831 21.4906 24.5831 21.3333 24.5831 21.2285C24.5306 20.4947 24.1114 20.0753 23.3775 20.0753C23.0106 20.0753 22.7486 20.1802 22.5389 20.3898C22.3292 20.5995 22.1719 20.9664 22.1719 21.4382C22.1719 24.8452 22.1719 28.1998 22.1719 31.6069V35.9574H22.1195C21.543 35.9574 21.0188 35.9574 20.4422 35.9574C19.7084 35.9574 19.027 35.9574 18.2932 35.9574C17.3497 35.9574 16.8779 36.3767 16.8779 37.163C16.8779 37.9492 17.3497 38.3686 18.2932 38.3686C20.2326 38.3686 22.2244 38.3686 24.1638 38.3686C25.579 38.3686 27.0466 38.3686 28.4619 38.3686C29.3529 38.3686 29.8247 38.0016 29.8247 37.2154C29.8247 36.8485 29.7199 36.534 29.5102 36.3767C29.3529 36.1671 28.986 36.0098 28.4619 36.0098Z" fill="url(#paint1_linear_2325_20881)"/>
<defs>
<linearGradient id="paint0_linear_2325_20881" x1="17.4025" y1="48.3237" x2="29.6358" y2="7.58701" gradientUnits="userSpaceOnUse">
<stop stop-color="#7EC111"/>
<stop offset="1" stop-color="#D6FE00"/>
</linearGradient>
<linearGradient id="paint1_linear_2325_20881" x1="20.5204" y1="50.4396" x2="36.489" y2="21.2962" gradientUnits="userSpaceOnUse">
<stop stop-color="#7EC111"/>
<stop offset="1" stop-color="#D6FE00"/>
</linearGradient>
</defs>
</svg>
