<svg width="49" height="53" viewBox="0 0 49 53" fill="none" xmlns="http://www.w3.org/2000/svg">
<path d="M0 22.047C0.38609 20.8887 1.00384 19.8463 2.1235 19.1899C2.23932 19.1127 2.23932 18.8424 2.23932 18.6494C2.23932 16.1784 2.23932 13.7074 2.23932 11.2365C2.23932 11.1206 2.23932 10.9662 2.23932 10.8504C2.27793 10.3098 2.62541 9.92376 3.08872 9.92376C3.59064 9.92376 3.93812 10.2712 3.93812 10.8504C3.93812 13.0897 3.93812 15.329 3.93812 17.5683C3.93812 17.9158 3.93812 18.2633 3.93812 18.6494C4.74891 18.6494 5.52109 18.6494 6.33188 18.6494C6.33188 13.5144 6.33188 8.3794 6.33188 3.2444C5.5597 3.2444 4.78752 3.2444 3.93812 3.2444C3.93812 4.32545 3.93812 5.32928 3.93812 6.37172C3.93812 6.7192 3.93812 7.02807 3.93812 7.37555C3.89951 7.91607 3.59064 8.22495 3.12733 8.22495C2.62541 8.22495 2.27793 7.87747 2.27793 7.33695C2.27793 6.21728 2.27793 5.13624 2.27793 4.01658C2.27793 3.59188 2.27793 3.20578 2.27793 2.78108C2.31654 2.0089 2.85707 1.46837 3.62925 1.46837C10.3472 1.46837 17.0652 1.46837 23.7446 1.46837C24.5167 1.46837 25.0187 1.97029 25.0573 2.78108C25.0573 3.82353 25.0573 4.86598 25.1731 5.94703C25.3275 5.71538 25.482 5.52233 25.6364 5.29067C26.6788 3.78492 27.7213 2.27916 28.8023 0.77341C29.4201 -0.114598 30.0764 -0.230425 31.0031 0.387319C36.5242 4.24822 42.0452 8.10912 47.5663 12.0086C48.4157 12.5878 48.5316 13.2827 47.9524 14.1321C47.103 15.329 46.2922 16.5645 45.4042 17.7614C45.2112 17.993 44.8251 18.1861 44.5162 18.1861C44.2846 18.1861 43.9371 17.8386 43.8599 17.6069C43.7826 17.3367 43.9371 16.9506 44.0915 16.6803C44.8251 15.5607 45.6359 14.4796 46.4081 13.3213C40.9642 9.49905 35.5589 5.71538 30.1151 1.89308C26.2155 7.45278 22.316 13.0125 18.3779 18.688C18.8412 18.688 19.1887 18.688 19.5748 18.688C20.8103 18.688 22.0844 18.688 23.3199 18.688C23.7059 18.688 23.8604 18.5722 24.0148 18.2247C25.0959 15.7923 26.7561 13.9391 29.2657 12.9739C33.2424 11.3909 36.7558 14.1321 36.3311 18.3791C36.3311 18.4563 36.3311 18.5336 36.2925 18.688C36.5628 18.688 36.7944 18.688 37.0647 18.688C38.5704 18.7266 40.0762 18.6494 41.5433 18.8038C43.4738 19.0355 44.8637 20.8115 44.9023 22.7806C44.9023 24.8655 44.9023 26.9503 44.9023 28.9966C44.9023 29.3827 44.9795 29.5758 45.3656 29.7302C46.9872 30.3479 48.0296 31.5062 48.1455 33.2436C48.2613 34.7107 48.2613 36.2165 48.1455 37.645C47.991 39.4597 46.91 40.6952 45.2112 41.3129C45.0954 41.3515 45.0181 41.3901 44.9023 41.4674C44.9023 43.6295 44.9023 45.7529 44.9023 47.915C44.9023 50.5405 43.1649 52.2779 40.5781 52.3165C38.5704 52.3165 36.5242 52.3165 34.5165 52.3165C33.8601 52.3165 33.474 52.0076 33.474 51.5057C33.474 50.9652 33.8215 50.6563 34.5551 50.6563C36.5242 50.6563 38.5318 50.6563 40.5009 50.6563C42.1997 50.6563 43.2035 49.6525 43.2421 47.9537C43.2421 45.8688 43.2421 43.7839 43.2421 41.6218C43.0105 41.6218 42.8174 41.5832 42.6244 41.5832C40.7711 41.5832 38.9179 41.5832 37.0647 41.5832C33.976 41.5832 31.3505 39.035 31.1575 35.9076C30.9645 32.8189 33.2424 30.0005 36.2539 29.6144C36.9875 29.4985 37.721 29.4985 38.416 29.4985C39.999 29.4985 41.5433 29.4985 43.2035 29.4985C43.2035 29.3055 43.2035 29.1125 43.2035 28.9194C43.2035 27.0276 43.2035 25.0971 43.2035 23.2053C43.2035 21.4292 42.1997 20.4254 40.4237 20.4254C28.4935 20.4254 16.5247 20.4254 4.59447 20.4254C2.70263 20.4254 1.73741 21.3906 1.73741 23.2825C1.73741 31.4676 1.73741 39.6141 1.73741 47.7992C1.73741 49.6911 2.70263 50.6949 4.59447 50.6949C6.52493 50.6949 28.8796 50.6949 30.81 50.6949C31.2733 50.6949 31.6208 50.888 31.6594 51.3127C31.698 51.5829 31.5436 51.969 31.3505 52.2007C31.2347 52.3551 30.9258 52.3551 30.6942 52.3937C28.6479 52.3937 6.21605 52.3937 4.16978 52.3937C2.23932 52.3937 0.69496 51.1582 0.154434 49.3436C0.115825 49.2278 0.0772175 49.1505 0.0386085 49.0347C-5.89703e-07 40.0002 0 31.0043 0 22.047ZM12.1618 3.20577C12.1618 8.37939 12.1618 13.5144 12.1618 18.6494C13.3973 18.6494 14.5942 18.6494 15.7525 18.6494C16.1 18.6494 16.3316 18.5336 16.5247 18.2633C18.4551 15.4834 20.347 12.7036 22.3546 9.96236C23.0882 8.99713 23.4357 7.99329 23.3585 6.79641C23.2813 5.59953 23.3199 4.40266 23.3199 3.20577C19.6134 3.20577 15.9069 3.20577 12.1618 3.20577ZM40.4237 39.7685C40.4237 39.8072 40.4237 39.8458 40.4237 39.8458C41.5819 39.8458 42.7016 39.8458 43.8599 39.8458C45.3656 39.8072 46.4467 38.7261 46.4853 37.2204C46.4853 36.1007 46.4853 35.0196 46.4853 33.9C46.4853 32.2784 45.5201 31.1973 43.9371 31.1587C41.5433 31.1201 39.111 31.0815 36.7172 31.1973C34.5551 31.3132 32.9335 33.1664 32.8563 35.3671C32.7791 37.4906 34.3234 39.4597 36.4469 39.6913C37.721 39.923 39.0723 39.7685 40.4237 39.7685ZM10.3858 18.6494C10.3858 13.4758 10.3858 8.34078 10.3858 3.20577C9.61365 3.20577 8.84147 3.20577 8.14651 3.20577C8.14651 8.37939 8.14651 13.5144 8.14651 18.6494C8.91869 18.6494 9.61365 18.6494 10.3858 18.6494ZM34.5551 18.688C34.5551 18.1475 34.5937 17.6842 34.5551 17.1823C34.4007 15.2904 32.9721 14.0935 31.0803 14.2866C29.4587 14.441 28.1846 15.2904 27.1422 16.4487C26.563 17.105 26.0997 17.8386 25.5206 18.6494C25.7908 18.688 25.8681 18.688 25.9453 18.688C28.8023 18.688 31.6208 18.688 34.5551 18.688Z" fill="black"/>
<path d="M41.8522 17.6842C41.0414 17.6842 40.5781 16.9506 40.9642 16.4873C41.6592 15.6765 41.5433 14.8658 41.4661 13.8619C41.3889 12.9739 41.08 12.5106 40.3851 12.0859C39.8445 11.7384 39.7287 11.2365 40.0762 10.8118C40.3851 10.3871 40.8484 10.3485 41.3503 10.696C41.8908 11.0435 42.4314 11.4295 42.9333 11.8156C43.4738 12.2017 43.551 12.5492 43.2421 13.1669C42.9719 13.6303 43.0491 14.0164 43.4352 14.3638C43.8985 14.7885 43.8985 15.136 43.551 15.6379C43.2035 16.1785 42.8561 16.6804 42.47 17.1823C42.2769 17.4526 41.968 17.607 41.8522 17.6842Z" fill="url(#paint0_linear_2393_20794)"/>
<path d="M34.7481 6.41032C34.7481 7.14389 34.1304 7.5686 33.5898 7.33694C33.4354 7.25973 33.281 7.18252 33.1651 7.1053C32.6246 6.60338 32.0455 6.3331 31.3119 6.79641C31.0802 6.95084 30.7328 6.95086 30.4239 6.91225C29.9606 6.83504 29.7289 6.98945 29.5359 7.37554C29.3814 7.64581 29.227 7.87747 28.9954 8.10913C28.6865 8.45661 28.2618 8.49521 27.8757 8.22495C27.4896 7.95468 27.3738 7.52999 27.6054 7.1439C28.0301 6.48755 28.4548 5.83119 28.9567 5.21345C29.227 4.86597 29.6131 4.82735 30.0378 5.059C30.5397 5.32926 30.9258 5.25207 31.3119 4.78876C31.698 4.32545 32.0455 4.28684 32.5474 4.59571C33.1265 4.9818 33.7443 5.36787 34.2848 5.83118C34.5551 5.98562 34.6709 6.29449 34.7481 6.41032Z" fill="url(#paint1_linear_2393_20794)"/>
<path d="M37.3735 38.6488C35.9836 38.6488 34.7481 37.7222 34.362 36.4095C33.9759 35.0968 34.4779 33.7069 35.6361 32.9347C36.7944 32.1625 38.3002 32.2397 39.3812 33.1278C39.9217 33.5525 40.0376 34.0544 39.7287 34.4791C39.3812 34.9424 38.9179 34.9424 38.3388 34.4791C37.8368 34.093 37.1805 34.0158 36.6786 34.3247C36.1767 34.6335 35.945 35.2126 36.0222 35.8304C36.138 36.4095 36.5627 36.9115 37.1805 36.9501C37.5666 36.9501 37.9913 36.7956 38.3001 36.6026C38.8793 36.2551 39.304 36.2165 39.6515 36.6412C39.9989 37.0659 39.8831 37.5678 39.3426 37.9925C38.7635 38.4172 38.1071 38.6488 37.3735 38.6488Z" fill="url(#paint2_linear_2393_20794)"/>
<defs>
<linearGradient id="paint0_linear_2393_20794" x1="40.9815" y1="22.4503" x2="48.0586" y2="12.5455" gradientUnits="userSpaceOnUse">
<stop stop-color="#7EC111"/>
<stop offset="1" stop-color="#D6FE00"/>
</linearGradient>
<linearGradient id="paint1_linear_2393_20794" x1="29.5295" y1="11.0459" x2="31.2273" y2="3.11053" gradientUnits="userSpaceOnUse">
<stop stop-color="#7EC111"/>
<stop offset="1" stop-color="#D6FE00"/>
</linearGradient>
<linearGradient id="paint2_linear_2393_20794" x1="35.827" y1="42.7692" x2="40.5026" y2="31.8337" gradientUnits="userSpaceOnUse">
<stop stop-color="#7EC111"/>
<stop offset="1" stop-color="#D6FE00"/>
</linearGradient>
</defs>
</svg>
